<?xml version="1.0" encoding="UTF-8"?>
<svg id="Layer_1" data-name="Layer 1" xmlns="http://www.w3.org/2000/svg" xmlns:xlink="http://www.w3.org/1999/xlink" viewBox="0 0 77.53 72.93">
  <defs>
    <style>
      .cls-1 {
        fill: url(#linear-gradient-2);
      }

      .cls-2 {
        fill: url(#linear-gradient-4);
      }

      .cls-3 {
        fill: url(#linear-gradient-3);
      }

      .cls-4 {
        fill: url(#linear-gradient-5);
      }

      .cls-5 {
        fill: url(#linear-gradient-8);
      }

      .cls-6 {
        fill: url(#linear-gradient-7);
      }

      .cls-7 {
        fill: url(#linear-gradient-6);
      }

      .cls-8 {
        fill: url(#linear-gradient);
      }
    </style>
    <linearGradient id="linear-gradient" x1="31.33" y1="36.67" x2="76.06" y2="36.67" gradientUnits="userSpaceOnUse">
      <stop offset="0" stop-color="#7f2bff"/>
      <stop offset="1" stop-color="#832cdb"/>
    </linearGradient>
    <linearGradient id="linear-gradient-2" x1="2.2" y1="50.91" x2="37.7" y2="50.91" gradientUnits="userSpaceOnUse">
      <stop offset="0" stop-color="#4a1580"/>
      <stop offset=".6" stop-color="#8726ce"/>
      <stop offset="1" stop-color="#ae32ff"/>
    </linearGradient>
    <linearGradient id="linear-gradient-3" x1="10.59" y1="69.46" x2="34.62" y2="21.83" xlink:href="#linear-gradient-2"/>
    <linearGradient id="linear-gradient-4" x1="8.14" y1="74.05" x2="31" y2="25.76" gradientUnits="userSpaceOnUse">
      <stop offset="0" stop-color="#4a1580"/>
      <stop offset=".03" stop-color="#4d1684"/>
      <stop offset=".35" stop-color="#7622b9"/>
      <stop offset=".63" stop-color="#942adf"/>
      <stop offset=".86" stop-color="#a730f6"/>
      <stop offset="1" stop-color="#ae32ff"/>
    </linearGradient>
    <linearGradient id="linear-gradient-5" x1="2.4" y1="51.38" x2="62.89" y2="51.38" xlink:href="#linear-gradient"/>
    <linearGradient id="linear-gradient-6" x1="2.48" y1="51.38" x2="62.84" y2="51.38" xlink:href="#linear-gradient"/>
    <linearGradient id="linear-gradient-7" x1="52.82" y1="33.64" x2="42.69" y2="17.45" xlink:href="#linear-gradient-4"/>
    <linearGradient id="linear-gradient-8" x1="54.83" y1="42.04" x2="68.92" y2="68" xlink:href="#linear-gradient-4"/>
  </defs>
  <g>
    <path class="cls-8" d="M59.84,34.36L43.37,2.51c-1.45-2.8-5.5-2.8-6.95,0l-5.08,9.83,11.39,22.02,20.17,36.65,7.27,1.92c4.4,0,7.25-4.59,5.25-8.46l-15.57-30.11Z"/>
    <path class="cls-1" d="M21.81,30.76c-3.33,6.45-14.14,27.34-19.23,37.18-1.18,2.29.5,5,3.1,5h9.29c1.31,0,2.5-.72,3.1-1.87,3.45-6.67,14.21-27.48,19.23-37.18,1.18-2.29-.5-4.99-3.11-4.99h-9.29c-1.31,0-2.51.72-3.1,1.87Z"/>
    <path class="cls-3" d="M25.11,28.89c-1.43,0-.68,2.05-1.33,3.31l-3.84,2.16L2.83,67.45c-1.3,2.5.55,5.47,3.4,5.47h8.55c1.43,0,2.75-.79,3.4-2.05l18.88-36.52h0c1.3-2.5-.55-5.47-3.4-5.47h-8.55Z"/>
    <path class="cls-2" d="M11.56,71.46c-1.96,0-3.23-2.04-2.34-3.77l18-34.8.12-.24c.89-1.72-.38-3.77-2.34-3.77h-.62c-.99,0-1.89.55-2.34,1.41l-2.1,4.06L1.95,69.16c-.89,1.72.38,3.77,2.34,3.77h11.22c.99,0,1.89-.55,2.34-1.41l.03-.06h-6.32Z"/>
    <path class="cls-4" d="M5.87,72.93c-2.69,0-4.35-2.89-2.97-5.18,11.24-18.67,29.15-33.58,47.68-37.19,1.43-.28,2.87-.52,4.31-.7s2.91.53,3.58,1.83l4.06,7.84c1.11,2.14-.31,4.67-2.73,4.95-.07,0-.13.02-.2.02-15.95,1.8-32.37,10.61-41.49,26.63-.62,1.1-1.77,1.8-3.05,1.8H5.87Z"/>
    <path class="cls-7" d="M6.05,72.93c-2.77,0-4.48-2.98-3.06-5.33,11.25-18.6,29.11-33.44,47.59-37.04,1.41-.28,2.82-.51,4.23-.7,1.51-.2,2.99.54,3.69,1.89l3.95,7.65c1.14,2.2-.32,4.8-2.81,5.09-.02,0-.04,0-.05,0-15.94,1.8-32.37,10.6-41.48,26.62-.63,1.1-1.78,1.81-3.06,1.81H6.05Z"/>
    <path class="cls-6" d="M50.57,30.56c.66-.13,1.32-.25,1.98-.36,2.35-.39,3.61-2.95,2.53-5.04L43.06,1.91c-1.32-2.55-5.01-2.55-6.33,0l-4.57,8.83c-.52,1-.52,2.19,0,3.19l8.46,16.36c.8,1.54,2.61,2.26,4.28,1.73,1.88-.6,3.77-1.09,5.66-1.46Z"/>
    <text/>
    <path class="cls-5" d="M65.94,46.16c-.65-1.25-1.99-2.01-3.42-1.92-.98.06-1.96.15-2.95.26-2.01.23-4.03.57-6.03,1.02-2.29.51-3.51,2.99-2.44,5.05l10.57,20.44c.61,1.18,1.84,1.92,3.18,1.92h9.1c2.67,0,4.39-2.78,3.18-5.13l-11.19-21.65Z"/>
    <text/>
    <text/>
  </g>
  <text/>
</svg>